<svg xmlns:xlink="http://www.w3.org/1999/xlink" xmlns="http://www.w3.org/2000/svg" id="Layer_1" data-name="Layer 1" viewBox="0 0 24 24" width="36"  height="36" ><defs><style>      .cls-1 {        fill: none;        stroke: #00c5c1;        stroke-linecap: round;        stroke-linejoin: round;        stroke-width: 1.5px;      }    </style></defs><path class="cls-1" d="M13.18,1.38l6.89,3.06c1.98.88,1.98,2.32,0,3.2l-6.89,3.06c-.78.35-2.06.35-2.84,0l-6.89-3.06c-1.98-.88-1.98-2.32,0-3.2l6.89-3.06c.78-.35,2.06-.35,2.84,0Z" stroke="#FFFFFF" fill-opacity="0" fill="#000000" stroke-width="1.5px"></path><path class="cls-1" d="M1.5,10.81h0c0,.98.73,2.11,1.63,2.51l7.92,3.52c.6.27,1.29.27,1.9,0l7.92-3.52c.9-.4,1.63-1.53,1.63-2.51h0" stroke="#FFFFFF" fill-opacity="0" fill="#000000" stroke-width="1.5px"></path><path class="cls-1" d="M1.5,16.65h0c0,1.09.64,2.07,1.63,2.51l7.92,3.52c.6.27,1.29.27,1.9,0l7.92-3.52c.99-.44,1.63-1.42,1.63-2.51h0" stroke="#FFFFFF" fill-opacity="0" fill="#000000" stroke-width="1.5px"></path></svg>